<svg width="1440" height="1024" viewBox="0 0 1440 1024" fill="none" xmlns="http://www.w3.org/2000/svg">
<g opacity="0.5">
<path d="M-43.5901 397.961C-36.3644 385.452 -18.3002 385.452 -11.0745 397.961L140.792 660.869C148.018 673.378 138.986 689.014 124.534 689.014H-179.199C-193.65 689.014 -202.683 673.378 -195.457 660.869L-43.5901 397.961Z" fill="url(#paint0_linear_26_256)"/>
<path d="M329.721 397.961C336.946 385.452 355.011 385.452 362.236 397.961L514.103 660.869C521.329 673.378 512.297 689.014 497.845 689.014H194.112C179.66 689.014 170.628 673.378 177.854 660.869L329.721 397.961Z" fill="url(#paint1_linear_26_256)"/>
<path d="M703.036 397.961C710.262 385.452 728.326 385.452 735.552 397.961L887.419 660.869C894.644 673.378 885.612 689.014 871.161 689.014H567.427C552.976 689.014 543.944 673.378 551.17 660.869L703.036 397.961Z" fill="url(#paint2_linear_26_256)"/>
<path d="M1076.35 397.961C1083.57 385.452 1101.64 385.452 1108.86 397.961L1260.73 660.869C1267.95 673.378 1258.92 689.014 1244.47 689.014H940.737C926.286 689.014 917.253 673.378 924.479 660.869L1076.35 397.961Z" fill="url(#paint3_linear_26_256)"/>
<path d="M1450.41 397.961C1457.63 385.452 1475.7 385.452 1482.92 397.961L1634.79 660.869C1642.02 673.378 1632.98 689.014 1618.53 689.014H1314.8C1300.35 689.014 1291.31 673.378 1298.54 660.869L1450.41 397.961Z" fill="url(#paint4_linear_26_256)"/>
<path d="M516.38 626.087C523.606 638.596 541.67 638.596 548.895 626.087L700.762 363.18C707.988 350.671 698.956 335.034 684.504 335.034L380.771 335.034C366.319 335.034 357.287 350.671 364.513 363.18L516.38 626.087Z" fill="url(#paint5_linear_26_256)"/>
<path d="M1263.01 626.087C1270.23 638.596 1288.3 638.596 1295.52 626.087L1447.39 363.18C1454.61 350.671 1445.58 335.034 1431.13 335.034L1127.4 335.034C1112.94 335.034 1103.91 350.671 1111.14 363.18L1263.01 626.087Z" fill="url(#paint6_linear_26_256)"/>
<path d="M922.205 626.087C914.979 638.596 896.915 638.596 889.689 626.087L737.823 363.18C730.597 350.671 739.629 335.034 754.081 335.034L1057.81 335.034C1072.27 335.034 1081.3 350.671 1074.07 363.18L922.205 626.087Z" fill="url(#paint7_linear_26_256)"/>
<path d="M175.582 626.087C168.356 638.596 150.292 638.596 143.066 626.087L-8.80035 363.18C-16.026 350.671 -6.99393 335.034 7.45746 335.034L311.191 335.034C325.642 335.034 334.675 350.671 327.449 363.18L175.582 626.087Z" fill="url(#paint8_linear_26_256)"/>
<path d="M-43.5901 776.477C-36.3644 763.968 -18.3002 763.968 -11.0745 776.477L140.792 1039.39C148.018 1051.89 138.986 1067.53 124.534 1067.53H-179.199C-193.65 1067.53 -202.683 1051.89 -195.457 1039.39L-43.5901 776.477Z" fill="url(#paint9_linear_26_256)"/>
<path d="M329.721 776.477C336.946 763.968 355.011 763.968 362.236 776.477L514.103 1039.39C521.329 1051.89 512.297 1067.53 497.845 1067.53H194.112C179.66 1067.53 170.628 1051.89 177.854 1039.39L329.721 776.477Z" fill="url(#paint10_linear_26_256)"/>
<path d="M703.036 776.477C710.262 763.968 728.326 763.968 735.552 776.477L887.419 1039.39C894.644 1051.89 885.612 1067.53 871.161 1067.53H567.427C552.976 1067.53 543.944 1051.89 551.17 1039.39L703.036 776.477Z" fill="url(#paint11_linear_26_256)"/>
<path d="M1076.35 776.477C1083.57 763.968 1101.64 763.968 1108.86 776.477L1260.73 1039.39C1267.95 1051.89 1258.92 1067.53 1244.47 1067.53H940.737C926.286 1067.53 917.253 1051.89 924.479 1039.39L1076.35 776.477Z" fill="url(#paint12_linear_26_256)"/>
<path d="M1450.41 776.477C1457.63 763.968 1475.7 763.968 1482.92 776.477L1634.79 1039.39C1642.02 1051.89 1632.98 1067.53 1618.53 1067.53H1314.8C1300.35 1067.53 1291.31 1051.89 1298.54 1039.39L1450.41 776.477Z" fill="url(#paint13_linear_26_256)"/>
<path d="M516.38 1004.61C523.606 1017.11 541.67 1017.11 548.895 1004.61L700.762 741.698C707.988 729.189 698.956 713.553 684.504 713.553H380.771C366.319 713.553 357.287 729.189 364.513 741.698L516.38 1004.61Z" fill="url(#paint14_linear_26_256)"/>
<path d="M1263.01 1004.61C1270.23 1017.11 1288.3 1017.11 1295.52 1004.61L1447.39 741.698C1454.61 729.189 1445.58 713.553 1431.13 713.553H1127.4C1112.94 713.553 1103.91 729.189 1111.14 741.698L1263.01 1004.61Z" fill="url(#paint15_linear_26_256)"/>
<path d="M922.205 1004.61C914.979 1017.11 896.915 1017.11 889.689 1004.61L737.823 741.698C730.597 729.189 739.629 713.553 754.081 713.553H1057.81C1072.27 713.553 1081.3 729.189 1074.07 741.698L922.205 1004.61Z" fill="url(#paint16_linear_26_256)"/>
<path d="M175.582 1004.61C168.356 1017.11 150.292 1017.11 143.066 1004.61L-8.80035 741.698C-16.026 729.189 -6.99393 713.553 7.45746 713.553H311.191C325.642 713.553 334.675 729.189 327.449 741.698L175.582 1004.61Z" fill="url(#paint17_linear_26_256)"/>
<path d="M-43.5901 19.4411C-36.3644 6.93216 -18.3002 6.93215 -11.0745 19.4411L140.792 282.349C148.018 294.858 138.986 310.494 124.534 310.494H-179.199C-193.65 310.494 -202.683 294.858 -195.457 282.349L-43.5901 19.4411Z" fill="url(#paint18_linear_26_256)"/>
<path d="M329.721 19.4411C336.946 6.93216 355.011 6.93215 362.236 19.4411L514.103 282.349C521.329 294.858 512.297 310.494 497.845 310.494H194.112C179.66 310.494 170.628 294.858 177.854 282.349L329.721 19.4411Z" fill="url(#paint19_linear_26_256)"/>
<path d="M703.036 19.4411C710.262 6.93216 728.326 6.93215 735.552 19.4411L887.419 282.349C894.644 294.858 885.612 310.494 871.161 310.494H567.427C552.976 310.494 543.944 294.858 551.17 282.349L703.036 19.4411Z" fill="url(#paint20_linear_26_256)"/>
<path d="M1076.35 19.4411C1083.57 6.93216 1101.64 6.93215 1108.86 19.4411L1260.73 282.349C1267.95 294.858 1258.92 310.494 1244.47 310.494H940.737C926.286 310.494 917.253 294.858 924.479 282.349L1076.35 19.4411Z" fill="url(#paint21_linear_26_256)"/>
<path d="M1450.41 19.4411C1457.63 6.93216 1475.7 6.93215 1482.92 19.4411L1634.79 282.349C1642.02 294.858 1632.98 310.494 1618.53 310.494H1314.8C1300.35 310.494 1291.31 294.858 1298.54 282.349L1450.41 19.4411Z" fill="url(#paint22_linear_26_256)"/>
<path d="M516.38 247.571C523.606 260.08 541.67 260.08 548.895 247.571L700.762 -15.3368C707.988 -27.8457 698.956 -43.4819 684.504 -43.4819L380.771 -43.4819C366.319 -43.4819 357.287 -27.8458 364.513 -15.3368L516.38 247.571Z" fill="url(#paint23_linear_26_256)"/>
<path d="M1263.01 247.571C1270.23 260.08 1288.3 260.08 1295.52 247.571L1447.39 -15.3368C1454.61 -27.8457 1445.58 -43.4819 1431.13 -43.4819L1127.4 -43.4819C1112.94 -43.4819 1103.91 -27.8458 1111.14 -15.3368L1263.01 247.571Z" fill="url(#paint24_linear_26_256)"/>
<path d="M922.205 247.571C914.979 260.08 896.915 260.08 889.689 247.571L737.823 -15.3368C730.597 -27.8457 739.629 -43.4819 754.081 -43.4819L1057.81 -43.4819C1072.27 -43.4819 1081.3 -27.8458 1074.07 -15.3368L922.205 247.571Z" fill="url(#paint25_linear_26_256)"/>
<path d="M175.582 247.571C168.356 260.08 150.292 260.08 143.066 247.571L-8.80035 -15.3368C-16.026 -27.8457 -6.99393 -43.4819 7.45746 -43.4819L311.191 -43.4819C325.642 -43.4819 334.675 -27.8458 327.449 -15.3368L175.582 247.571Z" fill="url(#paint26_linear_26_256)"/>
</g>
<defs>
<linearGradient id="paint0_linear_26_256" x1="-240.598" y1="711.798" x2="30.9643" y2="574.052" gradientUnits="userSpaceOnUse">
<stop stop-color="#F8FFA9"/>
<stop offset="1" stop-color="#9EDCFF"/>
</linearGradient>
<linearGradient id="paint1_linear_26_256" x1="132.713" y1="711.798" x2="404.275" y2="574.052" gradientUnits="userSpaceOnUse">
<stop stop-color="#F8FFA9"/>
<stop offset="1" stop-color="#9EDCFF"/>
</linearGradient>
<linearGradient id="paint2_linear_26_256" x1="506.029" y1="711.798" x2="777.591" y2="574.052" gradientUnits="userSpaceOnUse">
<stop stop-color="#F8FFA9"/>
<stop offset="1" stop-color="#9EDCFF"/>
</linearGradient>
<linearGradient id="paint3_linear_26_256" x1="879.338" y1="711.798" x2="1150.9" y2="574.052" gradientUnits="userSpaceOnUse">
<stop stop-color="#F8FFA9"/>
<stop offset="1" stop-color="#9EDCFF"/>
</linearGradient>
<linearGradient id="paint4_linear_26_256" x1="1253.4" y1="711.798" x2="1524.96" y2="574.052" gradientUnits="userSpaceOnUse">
<stop stop-color="#F8FFA9"/>
<stop offset="1" stop-color="#9EDCFF"/>
</linearGradient>
<linearGradient id="paint5_linear_26_256" x1="319.372" y1="312.251" x2="590.934" y2="449.996" gradientUnits="userSpaceOnUse">
<stop stop-color="#F8FFA9"/>
<stop offset="1" stop-color="#9EDCFF"/>
</linearGradient>
<linearGradient id="paint6_linear_26_256" x1="1066" y1="312.251" x2="1337.56" y2="449.996" gradientUnits="userSpaceOnUse">
<stop stop-color="#F8FFA9"/>
<stop offset="1" stop-color="#9EDCFF"/>
</linearGradient>
<linearGradient id="paint7_linear_26_256" x1="1119.21" y1="312.251" x2="847.651" y2="449.996" gradientUnits="userSpaceOnUse">
<stop stop-color="#F8FFA9"/>
<stop offset="1" stop-color="#9EDCFF"/>
</linearGradient>
<linearGradient id="paint8_linear_26_256" x1="372.59" y1="312.251" x2="101.028" y2="449.996" gradientUnits="userSpaceOnUse">
<stop stop-color="#F8FFA9"/>
<stop offset="1" stop-color="#9EDCFF"/>
</linearGradient>
<linearGradient id="paint9_linear_26_256" x1="-240.598" y1="1090.31" x2="30.9643" y2="952.569" gradientUnits="userSpaceOnUse">
<stop stop-color="#F8FFA9"/>
<stop offset="1" stop-color="#9EDCFF"/>
</linearGradient>
<linearGradient id="paint10_linear_26_256" x1="132.713" y1="1090.31" x2="404.275" y2="952.569" gradientUnits="userSpaceOnUse">
<stop stop-color="#F8FFA9"/>
<stop offset="1" stop-color="#9EDCFF"/>
</linearGradient>
<linearGradient id="paint11_linear_26_256" x1="506.029" y1="1090.31" x2="777.591" y2="952.569" gradientUnits="userSpaceOnUse">
<stop stop-color="#F8FFA9"/>
<stop offset="1" stop-color="#9EDCFF"/>
</linearGradient>
<linearGradient id="paint12_linear_26_256" x1="879.338" y1="1090.31" x2="1150.9" y2="952.569" gradientUnits="userSpaceOnUse">
<stop stop-color="#F8FFA9"/>
<stop offset="1" stop-color="#9EDCFF"/>
</linearGradient>
<linearGradient id="paint13_linear_26_256" x1="1253.4" y1="1090.31" x2="1524.96" y2="952.569" gradientUnits="userSpaceOnUse">
<stop stop-color="#F8FFA9"/>
<stop offset="1" stop-color="#9EDCFF"/>
</linearGradient>
<linearGradient id="paint14_linear_26_256" x1="319.372" y1="690.769" x2="590.934" y2="828.515" gradientUnits="userSpaceOnUse">
<stop stop-color="#F8FFA9"/>
<stop offset="1" stop-color="#9EDCFF"/>
</linearGradient>
<linearGradient id="paint15_linear_26_256" x1="1066" y1="690.769" x2="1337.56" y2="828.515" gradientUnits="userSpaceOnUse">
<stop stop-color="#F8FFA9"/>
<stop offset="1" stop-color="#9EDCFF"/>
</linearGradient>
<linearGradient id="paint16_linear_26_256" x1="1119.21" y1="690.769" x2="847.651" y2="828.515" gradientUnits="userSpaceOnUse">
<stop stop-color="#F8FFA9"/>
<stop offset="1" stop-color="#9EDCFF"/>
</linearGradient>
<linearGradient id="paint17_linear_26_256" x1="372.59" y1="690.769" x2="101.028" y2="828.515" gradientUnits="userSpaceOnUse">
<stop stop-color="#F8FFA9"/>
<stop offset="1" stop-color="#9EDCFF"/>
</linearGradient>
<linearGradient id="paint18_linear_26_256" x1="-240.598" y1="333.278" x2="30.9643" y2="195.532" gradientUnits="userSpaceOnUse">
<stop stop-color="#F8FFA9"/>
<stop offset="1" stop-color="#9EDCFF"/>
</linearGradient>
<linearGradient id="paint19_linear_26_256" x1="132.713" y1="333.278" x2="404.275" y2="195.532" gradientUnits="userSpaceOnUse">
<stop stop-color="#F8FFA9"/>
<stop offset="1" stop-color="#9EDCFF"/>
</linearGradient>
<linearGradient id="paint20_linear_26_256" x1="506.029" y1="333.278" x2="777.591" y2="195.532" gradientUnits="userSpaceOnUse">
<stop stop-color="#F8FFA9"/>
<stop offset="1" stop-color="#9EDCFF"/>
</linearGradient>
<linearGradient id="paint21_linear_26_256" x1="879.338" y1="333.278" x2="1150.9" y2="195.532" gradientUnits="userSpaceOnUse">
<stop stop-color="#F8FFA9"/>
<stop offset="1" stop-color="#9EDCFF"/>
</linearGradient>
<linearGradient id="paint22_linear_26_256" x1="1253.4" y1="333.278" x2="1524.96" y2="195.532" gradientUnits="userSpaceOnUse">
<stop stop-color="#F8FFA9"/>
<stop offset="1" stop-color="#9EDCFF"/>
</linearGradient>
<linearGradient id="paint23_linear_26_256" x1="319.372" y1="-66.2656" x2="590.934" y2="71.4798" gradientUnits="userSpaceOnUse">
<stop stop-color="#F8FFA9"/>
<stop offset="1" stop-color="#9EDCFF"/>
</linearGradient>
<linearGradient id="paint24_linear_26_256" x1="1066" y1="-66.2656" x2="1337.56" y2="71.4798" gradientUnits="userSpaceOnUse">
<stop stop-color="#F8FFA9"/>
<stop offset="1" stop-color="#9EDCFF"/>
</linearGradient>
<linearGradient id="paint25_linear_26_256" x1="1119.21" y1="-66.2656" x2="847.651" y2="71.4798" gradientUnits="userSpaceOnUse">
<stop stop-color="#F8FFA9"/>
<stop offset="1" stop-color="#9EDCFF"/>
</linearGradient>
<linearGradient id="paint26_linear_26_256" x1="372.59" y1="-66.2656" x2="101.028" y2="71.4798" gradientUnits="userSpaceOnUse">
<stop stop-color="#F8FFA9"/>
<stop offset="1" stop-color="#9EDCFF"/>
</linearGradient>
</defs>
</svg>
