<svg width="378" height="297" viewBox="0 0 378 297" fill="none" xmlns="http://www.w3.org/2000/svg">
<path d="M351.362 58.1519C350.673 58.8371 349.494 58.5212 349.24 57.5833L343.899 37.8705C343.645 36.9326 344.507 36.0761 345.45 36.3288L365.272 41.6402C366.215 41.8929 366.533 43.0653 365.844 43.7505L351.362 58.1519Z" fill="#F8FFA9"/>
<path d="M0.196344 126.946C-0.243868 126.08 0.41914 125.055 1.38976 125.101L21.7898 126.079C22.7605 126.126 23.3107 127.209 22.7803 128.029L11.6324 145.258C11.102 146.078 9.88875 146.02 9.44854 145.154L0.196344 126.946Z" fill="#F8FFA9"/>
<path d="M35.9972 205.061C35.7132 204.502 36.1409 203.841 36.7671 203.871L49.927 204.502C50.5531 204.532 50.9081 205.231 50.5659 205.759L43.3745 216.874C43.0324 217.403 42.2497 217.366 41.9657 216.807L35.9972 205.061Z" fill="#191AFE"/>
<path d="M109.778 46.763C110.267 47.253 110.044 48.0938 109.376 48.2765L95.3338 52.1154C94.6657 52.2981 94.0537 51.6855 94.2323 51.0129L97.9859 36.8751C98.1645 36.2025 98.9997 35.9742 99.4892 36.4642L109.778 46.763Z" fill="#191AFE"/>
<path d="M232.258 280.811C232.894 280.544 233.585 281.065 233.503 281.749L231.778 296.137C231.696 296.821 230.902 297.156 230.349 296.739L218.72 287.977C218.167 287.561 218.269 286.705 218.904 286.437L232.258 280.811Z" fill="#191AFE"/>
<path d="M355.429 254.329C354.752 253.632 355.083 252.457 356.024 252.214L375.8 247.114C376.741 246.871 377.587 247.742 377.323 248.682L371.771 268.439C371.506 269.379 370.33 269.682 369.653 268.985L355.429 254.329Z" fill="#F8FFA9"/>
</svg>
