<svg width="343" height="493" viewBox="0 0 343 493" fill="none" xmlns="http://www.w3.org/2000/svg">
<path d="M331.375 203.625V171.466H320.692V150.03H310.008V139.312H299.325V128.594H288.641V117.876H277.957V107.158H267.274V96.4398H245.907V85.7218H213.851V75.0037L128.37 75V85.718H96.3149V96.4361H74.9478V107.154H64.2642V117.872H53.5806V128.59H42.8971V139.308H32.2135V150.026H53.5806V203.621H64.2642V214.339H74.9478V235.775H85.6313V246.493H106.998V278.648H128.366V332.243H149.733V353.679H160.416V396.556H171.1V407.274H128.361V396.556H96.3053V385.838H74.9382V375.12H64.2547V364.402H53.5711V353.684H42.8875V342.966H32.204V321.53H21.5204V289.371H10.8368L10.8405 203.625H21.5241V171.466H32.2077V150.03H21.5241V171.466H10.8405V203.625H0.156982V289.379H10.8405V321.538H21.5241V342.974H32.2077V353.692H42.8912V364.41H53.5748V375.128H64.2584V385.846H74.9419V396.564H96.3091V407.282H128.365V418H213.843V407.282H245.898V396.564H267.265V385.846H277.949V375.128H288.632V364.41H299.316V353.692H309.999V342.974H320.683V321.538H331.367V289.379H342.05L342.058 203.625L331.375 203.625ZM331.375 289.379H320.692V321.538H310.008V342.974H299.325V353.692H288.641V364.41H277.957V375.128H267.274V385.846H245.907V396.564H213.851V407.282H192.484V380.484H203.168V353.687H213.851V342.969H224.535V332.251H235.218V300.092H213.851V289.374H192.484V278.656H160.429V289.374H149.745V278.656H139.062V257.22H128.378V246.502H117.694V225.066H107.011V214.348H128.378V203.63H139.062V214.348H160.429V203.63H171.112V214.348H181.796V225.066H192.479V235.784H203.163V214.348H192.479V171.471H203.163V139.312H213.847V96.435H192.479V107.153H203.163V128.589H192.479V107.153H171.112V139.308H160.429V128.59H149.745V139.308H139.062V128.59H128.378V107.154H139.062V96.436H128.378V85.7179H149.745V96.436H160.429V85.7179H213.851V96.436H245.907V107.154H256.59V139.313H267.274V160.749H277.957V171.467H288.641V160.749H310.008V171.467L320.692 171.466V192.903H310.008V203.621H299.325V214.339H310.008V246.498H320.692V278.657H331.375V289.379Z" fill="#9EDCFF"/>
<path d="M219.747 404.496C213.39 398.139 212.853 391.603 217.688 386.052L221.403 389.768C217.867 394.289 219.434 398.094 222.881 401.541C226.686 405.346 229.909 405.257 232.058 403.108C234.654 400.512 233.535 398.05 230.177 392.902C226.551 387.395 223.418 382.382 228.476 377.323C232.326 373.473 237.788 373.921 243.159 379.293C248.889 385.023 248.979 390.574 244.995 395.632L241.279 391.917C243.965 388.515 243.652 385.515 240.205 382.068C236.892 378.756 234.072 378.89 232.237 380.725C229.73 383.232 231.476 385.963 234.654 390.753C238.37 396.348 241.235 401.273 235.907 406.6C231.252 411.255 225.074 409.823 219.747 404.496Z" fill="#191AFE"/>
<path d="M216.63 359.657L219.584 356.702L222.942 360.06L230.239 352.763L233.865 356.389L226.568 363.686L231.044 368.162L228.09 371.117L223.613 366.64L208.572 381.681C206.96 383.293 207.274 384.681 208.751 386.158C209.467 386.874 210.452 387.501 210.989 387.77L211.124 387.904L207.99 391.037C206.96 390.366 205.841 389.515 204.767 388.441C201.812 385.487 200.872 382.129 204.14 378.861L219.987 363.014L216.63 359.657Z" fill="#191AFE"/>
<path d="M201.474 338.592L198.43 341.636L198.52 341.726C202.369 341.189 206.085 342.129 209.442 345.486C214.277 350.321 214.59 355.917 209.8 360.706L193.551 376.956L189.925 373.33L205.861 357.394C208.86 354.394 208.592 350.724 205.324 347.456C201.653 343.785 196.371 343.696 192.566 347.501L178.33 361.736L174.704 358.11L197.848 334.966L201.474 338.592Z" fill="#191AFE"/>
<path d="M166.136 349.542L189.28 326.398L192.906 330.024L169.762 353.168L166.136 349.542ZM193.667 322.011L198.143 317.534L201.769 321.16L197.293 325.637L193.667 322.011Z" fill="#191AFE"/>
<path d="M150.746 335.406C143.853 328.512 145.016 318.753 151.731 312.038C158.446 305.323 168.205 304.159 175.099 311.053C182.037 317.992 180.784 327.661 174.069 334.376C167.354 341.091 157.685 342.344 150.746 335.406ZM153.79 332.361C158.715 337.286 165.25 335.764 170.354 330.66C175.457 325.557 177.024 318.977 172.1 314.052C167.175 309.128 160.55 310.65 155.447 315.753C150.344 320.857 148.866 327.437 153.79 332.361Z" fill="#191AFE"/>
<path d="M115.7 299.106L147.707 267.098L161.047 280.438C164.405 283.796 165.882 287.511 165.569 291.137C165.345 294.047 164.047 296.957 161.629 299.374C155.765 305.239 148.871 305.418 141.888 298.434L133.158 289.705L119.729 303.135L115.7 299.106ZM148.244 274.619L136.426 286.437L144.842 294.853C149.364 299.374 153.795 299.24 157.466 295.569C161.316 291.719 160.958 287.332 156.884 283.259L148.244 274.619Z" fill="#191AFE"/>
<rect x="105.351" y="188.017" width="330" height="97.6597" rx="48.8298" transform="rotate(45 105.351 188.017)" stroke="black" stroke-width="3"/>
<path d="M192.159 193.818C185.265 186.924 186.429 177.165 193.144 170.45C199.858 163.736 209.617 162.572 216.511 169.466C223.45 176.404 222.196 186.074 215.482 192.788C208.767 199.503 199.097 200.757 192.159 193.818ZM195.203 190.774C200.127 195.698 206.663 194.176 211.766 189.073C216.869 183.97 218.436 177.389 213.512 172.465C208.588 167.541 201.962 169.063 196.859 174.166C191.756 179.269 190.279 185.85 195.203 190.774Z" fill="#082553"/>
<path d="M174.196 174.602L206.203 142.594L209.829 146.22L177.822 178.228L174.196 174.602Z" fill="#082553"/>
<path d="M165.365 165.771L197.373 133.764L200.999 137.39L168.991 169.397L165.365 165.771Z" fill="#082553"/>
<path d="M134.189 134.595L177.97 114.361L182.491 118.882L162.302 162.707L157.915 158.32L164.271 145.159L151.513 132.401L138.307 138.713L134.189 134.595ZM170.494 123.358L155.945 130.297L166.42 140.772L173.493 126.358C174.657 123.94 176.582 120.404 176.582 120.404L176.492 120.314C176.492 120.314 172.956 122.15 170.494 123.358Z" fill="#082553"/>
<rect x="103.351" y="3.01692" width="330" height="97.6597" rx="48.8298" transform="rotate(45 103.351 3.01692)" stroke="#191AFE" stroke-width="3"/>
</svg>
