<svg width="342" height="492" viewBox="0 0 342 492" fill="none" xmlns="http://www.w3.org/2000/svg">
<path d="M331.218 202.729V170.571H320.535V149.134H309.851V138.416H299.168V127.698H288.484V116.98H277.8V106.262H267.117V95.5443H245.75V84.8263H213.694V74.1082L128.213 74.1045V84.8225H96.1579V95.5406H74.7908V106.259H64.1072V116.977H53.4236V127.695H42.7401V138.413H32.0565V149.131H53.4236V202.726H64.1072V213.444H74.7908V234.88H85.4743V245.598H106.841V277.753H128.209V331.348H149.576V352.784H160.259V395.661H170.943V406.379H128.204V395.661H96.1484V384.943H74.7812V374.225H64.0977V363.507H53.4141V352.789H42.7305V342.071H32.047V320.635H21.3634V288.476H10.6798L10.6836 202.729H21.3671V170.571H32.0507V149.135H21.3671V170.571H10.6836V202.729H0V288.483H10.6836V320.642H21.3671V342.078H32.0507V352.796H42.7343V363.514H53.4178V374.232H64.1014V384.95H74.785V395.668H96.1521V406.386H128.208V417.104H213.686V406.386H245.741V395.668H267.108V384.95H277.792V374.232H288.475V363.514H299.159V352.796H309.842V342.078H320.526V320.642H331.21V288.483H341.893L341.901 202.729L331.218 202.729ZM331.218 288.483H320.535V320.642H309.851V342.078H299.168V352.796H288.484V363.514H277.8V374.232H267.117V384.95H245.75V395.668H213.694V406.386H192.327V379.589H203.011V352.791H213.694V342.073H224.378V331.355H235.061V299.196H213.694V288.478H192.327V277.76H160.272V288.478H149.588V277.76H138.905V256.324H128.221V245.606H117.537V224.17H106.854V213.452H128.221V202.734H138.905V213.452H160.272V202.734H170.955V213.452H181.639V224.17H192.322V234.888H203.006V213.452H192.322V170.575H203.006V138.416H213.69V95.5395H192.322V106.258H203.006V127.694H192.322V106.258H170.955V138.413H160.272V127.695H149.588V138.413H138.905V127.695H128.221V106.258H138.905V95.5405H128.221V84.8224H149.588V95.5405H160.272V84.8224H213.694V95.5405H245.75V106.258H256.433V138.417H267.117V159.853H277.8V170.571H288.484V159.853H309.851V170.571L320.535 170.571V192.008H309.851V202.726H299.168V213.444H309.851V245.602H320.535V277.761H331.218V288.483Z" fill="#9EDCFF"/>
<rect x="80.1436" y="162.071" width="365.426" height="97.6597" rx="48.8298" transform="rotate(45 80.1436 162.071)" stroke="black" stroke-width="3"/>
<path d="M192.002 192.922C185.108 186.028 186.272 176.269 192.987 169.555C199.702 162.84 209.461 161.676 216.354 168.57C223.293 175.508 222.04 185.178 215.325 191.893C208.61 198.607 198.941 199.861 192.002 192.922ZM195.046 189.878C199.97 194.802 206.506 193.28 211.609 188.177C216.713 183.074 218.279 176.493 213.355 171.569C208.431 166.645 201.806 168.167 196.702 173.27C191.599 178.373 190.122 184.954 195.046 189.878Z" fill="#082553"/>
<path d="M174.04 173.706L206.047 141.699L209.673 145.325L177.666 177.332L174.04 173.706Z" fill="#082553"/>
<path d="M165.208 164.875L197.216 132.868L200.842 136.494L168.834 168.501L165.208 164.875Z" fill="#082553"/>
<path d="M134.033 133.699L177.813 113.465L182.335 117.986L162.145 161.812L157.758 157.425L164.115 144.264L151.357 131.505L138.151 137.817L134.033 133.699ZM170.338 122.463L155.789 129.401L166.264 139.877L173.337 125.462C174.501 123.045 176.426 119.508 176.426 119.508L176.336 119.419C176.336 119.419 172.8 121.254 170.338 122.463Z" fill="#082553"/>
<rect x="103.193" y="2.12132" width="330" height="97.6597" rx="48.8298" transform="rotate(45 103.193 2.12132)" stroke="#191AFE" stroke-width="3"/>
<path d="M65.063 239.952L88.8218 216.193L91.6729 219.044L70.1882 240.529L81.253 251.594L78.9789 253.868L65.063 239.952ZM89.1533 264.857C87.5694 263.273 86.5511 261.485 86.0986 259.494C85.646 257.503 85.7705 255.455 86.4719 253.351C87.196 251.269 88.4971 249.289 90.3752 247.411C92.2532 245.533 94.2331 244.232 96.3149 243.508C98.4192 242.806 100.467 242.682 102.458 243.134C104.472 243.61 106.282 244.651 107.889 246.257C109.608 247.977 110.661 249.798 111.045 251.722C111.43 253.645 111.272 255.546 110.57 257.424C109.869 259.302 108.749 261.01 107.21 262.549C106.984 262.775 106.757 263.001 106.531 263.228C106.305 263.454 106.022 263.714 105.683 264.008L91.8686 250.194L94.0747 247.988L105.14 259.053C106.837 257.265 107.651 255.432 107.583 253.554C107.561 251.676 106.837 250.025 105.411 248.599C104.461 247.649 103.341 247.004 102.051 246.664C100.806 246.325 99.4827 246.359 98.0798 246.766C96.6769 247.173 95.2966 248.056 93.939 249.414L92.9886 250.364C91.4952 251.857 90.4883 253.362 89.9679 254.878C89.4701 256.372 89.3682 257.763 89.6624 259.053C89.9792 260.365 90.6128 261.497 91.5631 262.447C92.8302 263.714 94.0634 264.472 95.2627 264.721C96.4846 264.947 97.7178 264.778 98.9623 264.212L101.779 267.029C100.512 267.753 99.1433 268.172 97.6725 268.285C96.2244 268.421 94.7649 268.206 93.2941 267.64C91.8459 267.097 90.4657 266.169 89.1533 264.857ZM106.545 282.248C105.187 280.891 104.305 279.511 103.898 278.108C103.513 276.682 103.513 275.324 103.898 274.035C104.305 272.722 104.995 271.58 105.968 270.607C107.145 269.43 108.434 268.729 109.837 268.502C111.285 268.276 112.767 268.491 114.284 269.147C115.8 269.803 117.282 270.856 118.73 272.304L123.176 276.75C124.33 275.596 125.156 274.499 125.654 273.458C126.152 272.417 126.287 271.399 126.061 270.403C125.835 269.407 125.213 268.4 124.194 267.382C123.176 266.364 122.045 265.753 120.8 265.549C119.578 265.323 118.379 265.617 117.202 266.432L114.284 263.513C115.596 262.472 116.976 261.884 118.424 261.748C119.895 261.59 121.332 261.805 122.735 262.393C124.183 262.981 125.473 263.841 126.604 264.972C128.211 266.579 129.24 268.197 129.693 269.826C130.168 271.433 130.134 273.005 129.591 274.544C129.071 276.06 128.109 277.519 126.706 278.922L115.37 290.259L112.824 287.713L115.709 284.489C115.008 284.737 114.261 284.896 113.469 284.964C112.722 285.032 111.953 284.986 111.161 284.828C110.369 284.67 109.577 284.375 108.785 283.946C108.016 283.538 107.269 282.973 106.545 282.248ZM109.362 280.246C110.109 280.993 110.969 281.513 111.942 281.807C112.915 282.101 113.91 282.192 114.928 282.079C115.992 281.966 117.01 281.671 117.983 281.196C118.956 280.721 119.839 280.088 120.63 279.296L120.97 278.956L116.761 274.747C115.698 273.684 114.691 272.949 113.74 272.541C112.813 272.157 111.953 272.066 111.161 272.27C110.392 272.451 109.701 272.847 109.091 273.458C108.434 274.114 107.993 274.827 107.767 275.596C107.563 276.343 107.586 277.112 107.835 277.904C108.106 278.719 108.615 279.499 109.362 280.246ZM127.038 302.741C125.454 301.158 124.458 299.347 124.051 297.311C123.644 295.274 123.802 293.215 124.526 291.134C125.273 289.029 126.54 287.083 128.328 285.296C130.138 283.486 132.073 282.23 134.132 281.528C136.213 280.804 138.261 280.657 140.275 281.087C142.311 281.494 144.133 282.501 145.74 284.108C147.142 285.511 148.059 286.993 148.489 288.554C148.941 290.138 148.953 291.733 148.523 293.34L157.924 283.938L160.775 286.789L136.338 311.227L133.758 308.647L136.372 305.559C135.467 305.785 134.482 305.864 133.419 305.796C132.378 305.751 131.303 305.491 130.194 305.016C129.131 304.54 128.079 303.782 127.038 302.741ZM129.889 300.637C131.02 301.768 132.276 302.481 133.656 302.775C135.059 303.047 136.496 302.9 137.967 302.334C139.46 301.746 140.909 300.75 142.311 299.347C143.714 297.944 144.699 296.508 145.264 295.037C145.853 293.543 146 292.107 145.706 290.726C145.434 289.323 144.733 288.056 143.601 286.925C142.538 285.861 141.305 285.194 139.902 284.922C138.521 284.628 137.073 284.764 135.557 285.33C134.064 285.873 132.616 286.846 131.213 288.249C129.81 289.652 128.826 291.111 128.26 292.627C127.717 294.12 127.581 295.569 127.853 296.971C128.147 298.352 128.826 299.574 129.889 300.637ZM148.153 323.856C146.569 322.272 145.55 320.485 145.098 318.493C144.645 316.502 144.77 314.454 145.471 312.35C146.195 310.268 147.496 308.288 149.374 306.41C151.252 304.532 153.232 303.231 155.314 302.507C157.418 301.806 159.466 301.681 161.457 302.134C163.471 302.609 165.281 303.65 166.888 305.256C168.608 306.976 169.66 308.797 170.045 310.721C170.429 312.644 170.271 314.545 169.569 316.423C168.868 318.301 167.748 320.009 166.209 321.548C165.983 321.774 165.757 322.001 165.53 322.227C165.304 322.453 165.021 322.713 164.682 323.008L150.868 309.193L153.074 306.987L164.139 318.052C165.836 316.265 166.65 314.432 166.583 312.554C166.56 310.676 165.836 309.024 164.41 307.598C163.46 306.648 162.34 306.003 161.05 305.664C159.806 305.324 158.482 305.358 157.079 305.765C155.676 306.173 154.296 307.055 152.938 308.413L151.988 309.363C150.494 310.857 149.488 312.361 148.967 313.877C148.469 315.371 148.367 316.762 148.662 318.052C148.978 319.364 149.612 320.496 150.562 321.446C151.829 322.713 153.063 323.471 154.262 323.72C155.484 323.947 156.717 323.777 157.961 323.211L160.779 326.028C159.511 326.752 158.143 327.171 156.672 327.284C155.224 327.42 153.764 327.205 152.293 326.639C150.845 326.096 149.465 325.168 148.153 323.856ZM160.385 335.274L178.238 317.421L180.818 320.001L177.763 323.463C178.985 323.055 180.195 322.908 181.395 323.021C182.594 323.134 183.793 323.519 184.992 324.175C186.214 324.854 187.414 325.782 188.59 326.958L185.603 329.945L183.838 328.18C183.16 327.502 182.413 326.936 181.598 326.483C180.784 326.031 179.913 325.748 178.985 325.635C178.08 325.544 177.129 325.703 176.134 326.11C175.138 326.517 174.109 327.253 173.045 328.316L163.236 338.125L160.385 335.274ZM182.095 357.799C181.009 356.713 180.229 355.615 179.754 354.507C179.324 353.398 179.086 352.323 179.041 351.282C179.018 350.264 179.075 349.348 179.21 348.533L176.19 351.079L173.61 348.499L198.048 324.062L200.899 326.913L191.497 336.314C193.104 335.794 194.71 335.794 196.317 336.314C197.923 336.835 199.383 337.751 200.695 339.064C202.324 340.693 203.354 342.514 203.784 344.528C204.214 346.542 204.067 348.59 203.343 350.671C202.641 352.73 201.385 354.665 199.575 356.475C197.788 358.263 195.842 359.53 193.737 360.277C191.633 361.023 189.563 361.193 187.526 360.786C185.512 360.401 183.702 359.406 182.095 357.799ZM184.2 354.948C185.263 356.011 186.474 356.679 187.832 356.95C189.234 357.222 190.683 357.086 192.176 356.543C193.715 356 195.185 355.027 196.588 353.624C197.991 352.221 198.953 350.762 199.473 349.246C200.039 347.73 200.175 346.282 199.881 344.901C199.632 343.521 198.976 342.299 197.912 341.236C196.781 340.104 195.514 339.403 194.111 339.131C192.73 338.837 191.294 338.984 189.8 339.573C188.329 340.138 186.893 341.123 185.49 342.526C184.087 343.928 183.091 345.377 182.503 346.87C181.937 348.341 181.79 349.778 182.062 351.18C182.356 352.561 183.068 353.817 184.2 354.948ZM201.987 377.691C200.336 376.039 199.261 374.195 198.763 372.158C198.265 370.122 198.367 368.052 199.068 365.947C199.77 363.843 201.06 361.852 202.938 359.974C204.838 358.073 206.83 356.783 208.911 356.104C211.038 355.426 213.12 355.335 215.157 355.833C217.216 356.353 219.071 357.439 220.723 359.091C222.397 360.766 223.472 362.61 223.947 364.624C224.445 366.66 224.343 368.73 223.642 370.835C222.963 372.917 221.673 374.908 219.773 376.808C217.894 378.687 215.892 379.965 213.765 380.644C211.661 381.345 209.59 381.447 207.554 380.949C205.517 380.451 203.662 379.365 201.987 377.691ZM204.431 375.247C205.472 376.288 206.66 376.978 207.995 377.318C209.353 377.634 210.778 377.521 212.272 376.978C213.81 376.435 215.338 375.406 216.854 373.889C218.392 372.351 219.433 370.835 219.976 369.341C220.519 367.848 220.621 366.434 220.282 365.099C219.987 363.764 219.32 362.576 218.279 361.535C217.261 360.517 216.073 359.849 214.715 359.532C213.38 359.193 211.955 359.283 210.439 359.804C208.923 360.324 207.395 361.354 205.857 362.893C204.341 364.409 203.3 365.925 202.734 367.441C202.214 368.957 202.101 370.382 202.395 371.717C202.734 373.052 203.413 374.229 204.431 375.247ZM220.135 395.839C218.777 394.481 217.895 393.101 217.488 391.698C217.103 390.272 217.103 388.915 217.488 387.625C217.895 386.312 218.585 385.17 219.558 384.197C220.735 383.02 222.024 382.319 223.427 382.092C224.875 381.866 226.358 382.081 227.874 382.737C229.39 383.393 230.872 384.446 232.32 385.894L236.766 390.34C237.92 389.186 238.746 388.089 239.244 387.048C239.742 386.007 239.877 384.989 239.651 383.993C239.425 382.997 238.803 381.991 237.784 380.972C236.766 379.954 235.635 379.343 234.39 379.139C233.168 378.913 231.969 379.207 230.793 380.022L227.874 377.103C229.186 376.062 230.566 375.474 232.014 375.338C233.485 375.18 234.922 375.395 236.325 375.983C237.773 376.571 239.063 377.431 240.194 378.562C241.801 380.169 242.83 381.787 243.283 383.416C243.758 385.023 243.724 386.595 243.181 388.134C242.661 389.65 241.699 391.109 240.296 392.512L228.96 403.849L226.414 401.303L229.299 398.079C228.598 398.328 227.851 398.486 227.059 398.554C226.312 398.622 225.543 398.576 224.751 398.418C223.959 398.26 223.167 397.966 222.375 397.536C221.606 397.128 220.859 396.563 220.135 395.839ZM222.952 393.836C223.699 394.583 224.559 395.103 225.532 395.397C226.505 395.691 227.5 395.782 228.518 395.669C229.582 395.556 230.6 395.262 231.573 394.786C232.546 394.311 233.429 393.678 234.221 392.886L234.56 392.546L230.351 388.338C229.288 387.274 228.281 386.539 227.331 386.131C226.403 385.747 225.543 385.656 224.751 385.86C223.982 386.041 223.292 386.437 222.681 387.048C222.024 387.704 221.583 388.417 221.357 389.186C221.153 389.933 221.176 390.702 221.425 391.494C221.696 392.309 222.205 393.089 222.952 393.836ZM233.67 408.559L251.523 390.706L254.103 393.286L251.048 396.748C252.27 396.34 253.48 396.193 254.68 396.306C255.879 396.419 257.078 396.804 258.277 397.46C259.499 398.139 260.699 399.067 261.875 400.243L258.888 403.23L257.123 401.465C256.445 400.787 255.698 400.221 254.883 399.768C254.069 399.316 253.198 399.033 252.27 398.92C251.365 398.829 250.414 398.988 249.419 399.395C248.423 399.802 247.394 400.538 246.33 401.601L236.521 411.41L233.67 408.559ZM253.223 428.927C251.639 427.343 250.644 425.533 250.237 423.496C249.829 421.46 249.988 419.401 250.712 417.319C251.458 415.215 252.726 413.269 254.513 411.481C256.323 409.671 258.258 408.415 260.317 407.714C262.399 406.99 264.447 406.843 266.46 407.272C268.497 407.68 270.318 408.687 271.925 410.293C273.328 411.696 274.244 413.178 274.674 414.739C275.127 416.323 275.138 417.919 274.708 419.525L284.11 410.123L286.961 412.975L262.523 437.412L259.944 434.833L262.557 431.744C261.652 431.97 260.668 432.049 259.604 431.982C258.563 431.936 257.489 431.676 256.38 431.201C255.316 430.726 254.264 429.968 253.223 428.927ZM256.074 426.823C257.206 427.954 258.462 428.667 259.842 428.961C261.245 429.232 262.682 429.085 264.152 428.52C265.646 427.931 267.094 426.936 268.497 425.533C269.9 424.13 270.884 422.693 271.45 421.222C272.038 419.729 272.185 418.292 271.891 416.912C271.619 415.509 270.918 414.242 269.787 413.11C268.723 412.047 267.49 411.379 266.087 411.108C264.707 410.814 263.259 410.949 261.743 411.515C260.249 412.058 258.801 413.031 257.398 414.434C255.995 415.837 255.011 417.296 254.445 418.812C253.902 420.306 253.766 421.754 254.038 423.157C254.332 424.537 255.011 425.759 256.074 426.823Z" fill="#191AFE"/>
</svg>
